<mxfile host="65bd71144e">
    <diagram id="KNW3VBv4Ct6ksiqZtFe6" name="Page-1">
        <mxGraphModel dx="744" dy="579" grid="1" gridSize="10" guides="1" tooltips="1" connect="1" arrows="1" fold="1" page="1" pageScale="1" pageWidth="827" pageHeight="1169" math="0" shadow="0">
            <root>
                <mxCell id="0"/>
                <mxCell id="1" parent="0"/>
                <mxCell id="2" value="" style="whiteSpace=wrap;html=1;" vertex="1" parent="1">
                    <mxGeometry x="80" y="80" width="120" height="310" as="geometry"/>
                </mxCell>
                <mxCell id="3" value="Global Execution context&lt;br&gt;" style="whiteSpace=wrap;html=1;" vertex="1" parent="1">
                    <mxGeometry x="80" y="330" width="120" height="60" as="geometry"/>
                </mxCell>
                <mxCell id="4" value="Execution context for&amp;nbsp;&lt;br&gt;&lt;div style=&quot;color: rgb(212 , 212 , 212) ; background-color: rgb(30 , 30 , 30) ; font-family: &amp;#34;menlo&amp;#34; , &amp;#34;monaco&amp;#34; , &amp;#34;courier new&amp;#34; , monospace ; line-height: 18px&quot;&gt;&lt;span style=&quot;color: #dcdcaa&quot;&gt;printDetails&lt;/span&gt;&lt;/div&gt;" style="whiteSpace=wrap;html=1;" vertex="1" parent="1">
                    <mxGeometry x="80" y="270" width="120" height="60" as="geometry"/>
                </mxCell>
                <mxCell id="5" value="Execution context for&amp;nbsp;&lt;br&gt;&lt;div style=&quot;color: rgb(212 , 212 , 212) ; background-color: rgb(30 , 30 , 30) ; font-family: &amp;#34;menlo&amp;#34; , &amp;#34;monaco&amp;#34; , &amp;#34;courier new&amp;#34; , monospace ; line-height: 18px&quot;&gt;&lt;div style=&quot;font-family: &amp;#34;menlo&amp;#34; , &amp;#34;monaco&amp;#34; , &amp;#34;courier new&amp;#34; , monospace ; line-height: 18px&quot;&gt;&lt;span style=&quot;color: #dcdcaa&quot;&gt;print&lt;/span&gt;&lt;/div&gt;&lt;/div&gt;" style="whiteSpace=wrap;html=1;" vertex="1" parent="1">
                    <mxGeometry x="80" y="210" width="120" height="60" as="geometry"/>
                </mxCell>
                <mxCell id="6" value="Execution Stack" style="text;html=1;align=center;verticalAlign=middle;resizable=0;points=[];autosize=1;strokeColor=none;fillColor=none;" vertex="1" parent="1">
                    <mxGeometry x="90" y="410" width="100" height="20" as="geometry"/>
                </mxCell>
                <mxCell id="7" value="&lt;h1&gt;Lexical env.&lt;/h1&gt;&lt;p&gt;For each execution context,&amp;nbsp;&lt;/p&gt;&lt;p&gt;one lexical env. gets created.&lt;/p&gt;&lt;p&gt;LEXICAL ENV. = VARIABLES ACCESSED LOCALLY + its LEXICAL PARENT&lt;/p&gt;" style="text;html=1;strokeColor=none;fillColor=none;spacing=5;spacingTop=-20;whiteSpace=wrap;overflow=hidden;rounded=0;" vertex="1" parent="1">
                    <mxGeometry x="270" y="240" width="440" height="120" as="geometry"/>
                </mxCell>
                <mxCell id="8" value="Lexical here means that WHERE IT IS LOCATED&amp;nbsp;" style="text;html=1;align=center;verticalAlign=middle;resizable=0;points=[];autosize=1;strokeColor=none;fillColor=none;" vertex="1" parent="1">
                    <mxGeometry x="200" y="400" width="280" height="20" as="geometry"/>
                </mxCell>
                <mxCell id="9" value="" style="whiteSpace=wrap;html=1;" vertex="1" parent="1">
                    <mxGeometry x="10" y="500" width="330" height="270" as="geometry"/>
                </mxCell>
                <mxCell id="10" value="Execution Context for&amp;nbsp;&lt;br&gt;print&amp;nbsp;" style="text;html=1;align=center;verticalAlign=middle;resizable=0;points=[];autosize=1;strokeColor=none;fillColor=none;" vertex="1" parent="1">
                    <mxGeometry x="95" y="510" width="130" height="30" as="geometry"/>
                </mxCell>
                <mxCell id="11" value="" style="whiteSpace=wrap;html=1;" vertex="1" parent="1">
                    <mxGeometry x="30" y="585" width="120" height="155" as="geometry"/>
                </mxCell>
                <mxCell id="12" value="" style="whiteSpace=wrap;html=1;" vertex="1" parent="1">
                    <mxGeometry x="190" y="585" width="120" height="155" as="geometry"/>
                </mxCell>
                <mxCell id="13" value="Memory" style="text;html=1;align=center;verticalAlign=middle;resizable=0;points=[];autosize=1;strokeColor=none;fillColor=none;" vertex="1" parent="1">
                    <mxGeometry x="50" y="560" width="60" height="20" as="geometry"/>
                </mxCell>
                <mxCell id="14" value="execution code" style="text;html=1;align=center;verticalAlign=middle;resizable=0;points=[];autosize=1;strokeColor=none;fillColor=none;" vertex="1" parent="1">
                    <mxGeometry x="200" y="560" width="100" height="20" as="geometry"/>
                </mxCell>
                <mxCell id="15" value="LOCAL VARIABLES" style="whiteSpace=wrap;html=1;" vertex="1" parent="1">
                    <mxGeometry x="30" y="600" width="120" height="40" as="geometry"/>
                </mxCell>
                <mxCell id="16" value="Reference to variables of lexical parent" style="whiteSpace=wrap;html=1;" vertex="1" parent="1">
                    <mxGeometry x="30" y="680" width="120" height="60" as="geometry"/>
                </mxCell>
                <mxCell id="17" value="" style="whiteSpace=wrap;html=1;" vertex="1" parent="1">
                    <mxGeometry x="20" y="830" width="330" height="270" as="geometry"/>
                </mxCell>
                <mxCell id="18" value="Execution Context for&amp;nbsp;&lt;br&gt;printDetails" style="text;html=1;align=center;verticalAlign=middle;resizable=0;points=[];autosize=1;strokeColor=none;fillColor=none;" vertex="1" parent="1">
                    <mxGeometry x="95" y="840" width="130" height="30" as="geometry"/>
                </mxCell>
                <mxCell id="19" value="Memory&amp;nbsp;" style="whiteSpace=wrap;html=1;" vertex="1" parent="1">
                    <mxGeometry x="30" y="920" width="120" height="60" as="geometry"/>
                </mxCell>
                <mxCell id="22" style="edgeStyle=none;html=1;" edge="1" parent="1" source="16" target="19">
                    <mxGeometry relative="1" as="geometry"/>
                </mxCell>
                <mxCell id="20" value="code execution" style="whiteSpace=wrap;html=1;" vertex="1" parent="1">
                    <mxGeometry x="190" y="920" width="120" height="60" as="geometry"/>
                </mxCell>
                <mxCell id="23" value="" style="whiteSpace=wrap;html=1;" vertex="1" parent="1">
                    <mxGeometry x="630" y="560" width="120" height="410" as="geometry"/>
                </mxCell>
                <mxCell id="24" value="Global (title)" style="whiteSpace=wrap;html=1;" vertex="1" parent="1">
                    <mxGeometry x="630" y="910" width="120" height="60" as="geometry"/>
                </mxCell>
                <mxCell id="26" value="func" style="whiteSpace=wrap;html=1;" vertex="1" parent="1">
                    <mxGeometry x="630" y="850" width="120" height="60" as="geometry"/>
                </mxCell>
            </root>
        </mxGraphModel>
    </diagram>
</mxfile>